<svg width="16" height="13" viewBox="0 0 16 13" fill="none" xmlns="http://www.w3.org/2000/svg">
    <path fill-rule="evenodd" clip-rule="evenodd" d="M9.98243 7.44261C9.42044 7.87691 8.60077 8.51035 7.99998 8.49998C7.39919 8.51035 6.57952 7.87691 6.01753 7.44261C5.90135 7.35282 5.79617 7.27154 5.70622 7.20622C1.86269 4.41697 1.31041 3.98477 0.488794 3.3418C0.423958 3.29106 0.357445 3.23901 0.287505 3.18438C0.106262 3.04061 0 2.82501 0 2.59374V2C0 1.17187 0.671873 0.5 1.5 0.5H14.5C15.3281 0.5 16 1.17187 16 2V2.59374C16 2.82501 15.8937 3.04376 15.7125 3.18438C15.659 3.22634 15.6075 3.26677 15.5572 3.30624C14.7089 3.97234 14.2086 4.36522 10.2937 7.20622C10.2038 7.27154 10.0986 7.35282 9.98243 7.44261ZM16 11C16 11.8281 15.3281 12.5 14.5 12.5H1.5C0.671873 12.5 0 11.8281 0 11V4.61248C0 4.45623 0.178131 4.36873 0.30313 4.46563C0.515246 4.63039 0.748311 4.80865 1.05885 5.04153L1.25492 5.18814C1.97687 5.72651 3.09033 6.54204 5.11873 8.01561C5.21869 8.08857 5.32907 8.17373 5.44827 8.26571C6.11536 8.78044 7.05879 9.5084 7.99998 9.50309C8.94555 9.51106 9.90457 8.76921 10.5612 8.26126C10.6793 8.1699 10.7876 8.08611 10.8843 8.01561C14.0718 5.7 14.9969 5.00625 15.6968 4.46248C15.8187 4.36562 16 4.45623 16 4.60936V11Z" fill="#183B56"/>
</svg>
