<svg width="409" height="70" viewBox="0 0 409 70" fill="none" xmlns="http://www.w3.org/2000/svg">
<path d="M0 38.0295C0 55.6139 14.5299 69.9563 32.3909 70H33.6154C51.4701 69.95 66 55.6076 66 38.0295V0H0V38.0295ZM20.8114 53.6211C18.5082 55.5701 15.9321 57.132 13.1404 58.2689C7.47434 53.0155 4.23841 45.6631 4.23841 38.0234V4.2354C11.1861 4.73513 17.6579 7.68974 22.5879 12.6059C15.9638 25.2116 15.2976 40.4534 20.8177 53.615L20.8114 53.6211ZM22.6578 57.5317C24.1488 60.3365 25.9191 62.9975 27.9368 65.4712C23.9839 64.8403 20.2023 63.3785 16.8648 61.1797C18.9206 60.1677 20.8622 58.9435 22.6578 57.5317ZM25.5511 16.0851C29.009 20.8513 30.8491 26.4421 30.8871 32.3264C30.8364 38.9479 28.4253 45.3194 24.0663 50.3917C19.8977 39.2289 20.437 26.8419 25.5511 16.0851ZM24.7643 8.88287C22.791 7.04636 20.6147 5.47202 18.2544 4.16647H28.2286C26.9786 5.66566 25.8175 7.24625 24.7579 8.88287H24.7643ZM33.0064 21.0449C31.7627 17.7904 29.9988 14.7734 27.7464 12.0498C29.2565 9.58239 31.0204 7.24607 33.0064 5.10346C34.9923 7.25231 36.7625 9.58879 38.2663 12.0562C36.0138 14.7798 34.2563 17.7968 33.0064 21.0513V21.0449ZM33.0064 43.5079C34.5862 47.6244 37.0163 51.4288 40.119 54.6146C38.2472 58.3626 35.8616 61.8168 33.0064 64.9026C30.1511 61.8168 27.7718 58.3688 25.9 54.6146C29.0027 51.4288 31.4328 47.6244 33.0127 43.5079H33.0064ZM52.8723 58.275C50.0742 57.1319 47.4981 55.5701 45.1949 53.6211C50.7087 40.4844 50.0488 25.2241 43.431 12.6059C48.361 7.68974 54.8329 4.73499 61.7806 4.2415V38.0295C61.7806 45.6692 58.5383 53.0278 52.8723 58.275ZM38.0759 65.4651C40.0936 62.9914 41.8638 60.3301 43.3485 57.5253C45.1442 58.937 47.0921 60.1616 49.1415 61.1736C45.7913 63.3724 42.0098 64.8342 38.0759 65.4651ZM35.1255 32.3264C35.1573 26.4421 36.9973 20.8513 40.4616 16.0851C45.5757 26.8419 46.1086 39.2291 41.9463 50.3856C37.5937 45.3133 35.1826 38.9354 35.1319 32.3264H35.1255ZM41.2484 8.87647C40.1952 7.24609 39.0277 5.66566 37.7777 4.16647H47.752C45.398 5.47202 43.2217 7.0462 41.2484 8.87647Z" fill="#F6EFE2"/>
<path d="M108.327 38.4117C108.187 38.6017 107.962 38.8266 107.652 39.0863C107.342 39.346 106.981 39.6017 106.574 39.8576C106.167 40.1134 105.656 40.3343 105.039 40.5204C104.423 40.7064 103.776 40.7996 103.101 40.7996C101.365 40.7996 99.9113 40.218 98.7445 39.0513C97.5778 37.8845 96.9964 36.4349 96.9964 34.6945C96.9964 32.9541 97.5778 31.5044 98.7445 30.3416C99.9113 29.1748 101.361 28.5933 103.101 28.5933C103.733 28.5933 104.35 28.6902 104.954 28.884C105.559 29.0778 106.047 29.2911 106.419 29.5198C106.792 29.7485 107.137 30.0159 107.45 30.3183C107.764 30.6206 107.97 30.8337 108.059 30.9616C108.148 31.0856 108.222 31.1825 108.272 31.2523L110.8 28.725L110.501 28.3374C110.311 28.0854 109.997 27.7794 109.559 27.4189C109.121 27.0545 108.621 26.694 108.055 26.3296C107.489 25.9653 106.764 25.659 105.885 25.4032C105.005 25.1473 104.074 25.0195 103.098 25.0195C100.264 25.0195 97.8724 25.9653 95.9227 27.8568C93.9729 29.7484 93 32.0316 93 34.7023C93 37.373 93.9729 39.6561 95.9227 41.5515C97.8724 43.447 100.264 44.3966 103.098 44.3966C104.067 44.3966 105.001 44.2648 105.904 43.9935C106.807 43.726 107.536 43.4314 108.094 43.1058C108.652 42.7802 109.175 42.4043 109.664 41.9779C110.152 41.5516 110.466 41.2531 110.61 41.0825C110.753 40.912 110.858 40.7762 110.927 40.6754L108.528 38.1481L108.319 38.4195L108.327 38.4117Z" fill="#F6EFE2"/>
<path d="M136.677 32.8377H128.719V25.3953H124.727V43.9818H128.719V36.4114H136.677V43.9818H140.658V25.3953H136.677V32.8377Z" fill="#F6EFE2"/>
<path d="M165.074 25.0078C162.245 25.0078 159.853 25.9537 157.907 27.8453C155.957 29.7369 154.984 32.0199 154.984 34.6906C154.984 37.3613 155.957 39.6443 157.907 41.5398C159.857 43.4353 162.245 44.3851 165.074 44.3851C167.904 44.3851 170.295 43.4353 172.241 41.5398C174.191 39.6443 175.164 37.3613 175.164 34.6906C175.164 32.0199 174.191 29.7408 172.241 27.8453C170.292 25.9537 167.904 25.0078 165.074 25.0078ZM169.307 39.032C168.148 40.2065 166.737 40.7956 165.074 40.7956C163.411 40.7956 162 40.2065 160.841 39.032C159.682 37.8575 159.105 36.4117 159.105 34.6945C159.105 32.9774 159.682 31.5315 160.841 30.3531C162 29.1747 163.411 28.5855 165.074 28.5855C166.737 28.5855 168.148 29.1747 169.307 30.3531C170.466 31.5315 171.043 32.9813 171.043 34.6945C171.043 36.4078 170.466 37.8536 169.307 39.032Z" fill="#F6EFE2"/>
<path d="M203.751 38.4117C203.611 38.6017 203.387 38.8266 203.076 39.0863C202.766 39.346 202.406 39.6017 201.999 39.8576C201.592 40.1134 201.08 40.3343 200.464 40.5204C199.848 40.7064 199.2 40.7996 198.526 40.7996C196.789 40.7996 195.336 40.218 194.169 39.0513C193.002 37.8845 192.421 36.4349 192.421 34.6945C192.421 32.9541 193.006 31.5044 194.169 30.3416C195.336 29.1748 196.785 28.5933 198.526 28.5933C199.158 28.5933 199.774 28.6902 200.379 28.884C200.983 29.0778 201.472 29.2911 201.844 29.5198C202.216 29.7485 202.561 30.0159 202.875 30.3183C203.189 30.6206 203.394 30.8337 203.483 30.9616C203.573 31.0856 203.646 31.1825 203.697 31.2523L206.224 28.725L205.925 28.3374C205.736 28.0854 205.422 27.7794 204.984 27.4189C204.546 27.0545 204.046 26.694 203.48 26.3296C202.914 25.9653 202.189 25.659 201.309 25.4032C200.429 25.1473 199.499 25.0195 198.522 25.0195C195.688 25.0195 193.297 25.9653 191.347 27.8568C189.397 29.7484 188.424 32.0316 188.424 34.7023C188.424 37.373 189.397 39.6561 191.347 41.5515C193.297 43.447 195.688 44.3966 198.522 44.3966C199.491 44.3966 200.425 44.2648 201.328 43.9935C202.231 43.726 202.96 43.4314 203.518 43.1058C204.077 42.7802 204.6 42.4043 205.088 41.9779C205.577 41.5516 205.891 41.2531 206.034 41.0825C206.177 40.912 206.282 40.7762 206.352 40.6754L203.953 38.1481L203.743 38.4195L203.751 38.4117Z" fill="#F6EFE2"/>
<path d="M238.738 34.6906C238.738 32.0199 237.765 29.7408 235.815 27.8453C233.865 25.9537 231.478 25.0078 228.648 25.0078C225.818 25.0078 223.427 25.9537 221.481 27.8453C219.531 29.7369 218.558 32.0199 218.558 34.6906C218.558 37.3613 219.531 39.6443 221.481 41.5398C223.43 43.4353 225.818 44.3851 228.648 44.3851C231.478 44.3851 233.869 43.4353 235.815 41.5398C237.765 39.6443 238.738 37.3613 238.738 34.6906ZM232.881 39.032C231.722 40.2065 230.311 40.7956 228.648 40.7956C226.985 40.7956 225.574 40.2065 224.415 39.032C223.256 37.8575 222.679 36.4117 222.679 34.6945C222.679 32.9774 223.256 31.5315 224.415 30.3531C225.574 29.1747 226.985 28.5855 228.648 28.5855C230.311 28.5855 231.722 29.1747 232.881 30.3531C234.04 31.5315 234.617 32.9813 234.617 34.6945C234.617 36.4078 234.04 37.8536 232.881 39.032Z" fill="#F6EFE2"/>
<path d="M265.677 40.404H257.057V25.3953H253.064V43.9818H265.677V40.404Z" fill="#F6EFE2"/>
<path d="M284.527 25.3953L277.217 43.9818H281.469L283.062 39.6015H290.229L291.822 43.9818H296.074L288.764 25.3953H284.527ZM284.384 36.1557L286.651 30.0507L288.907 36.1557H284.384Z" fill="#F6EFE2"/>
<path d="M305.889 28.9847H311.203V43.9818H315.184V28.9847H320.487V25.3953H305.889V28.9847Z" fill="#F6EFE2"/>
<path d="M346.632 37.2177L337.48 25.3953H334.023V43.9818H338.015V32.1748L347.167 43.9818H350.613V25.3953H346.632V37.2177Z" fill="#F6EFE2"/>
<path d="M375.107 33.8068C374.203 33.4618 373.304 33.1594 372.413 32.8997C371.517 32.64 370.757 32.3221 370.129 31.9461C369.501 31.5701 369.191 31.0702 369.191 30.45C369.191 29.8957 369.424 29.4266 369.885 29.039C370.346 28.6514 370.959 28.4538 371.719 28.4538C372.35 28.4538 372.963 28.6011 373.56 28.8957C374.157 29.1903 374.548 29.4228 374.734 29.6011C374.92 29.7794 375.064 29.9267 375.168 30.0468L377.552 27.5195L377.32 27.2599C377.173 27.0777 376.928 26.8644 376.587 26.6163C376.246 26.3683 375.847 26.1281 375.393 25.8916C374.94 25.6552 374.358 25.4457 373.649 25.2674C372.94 25.0891 372.207 25 371.443 25C369.517 25 367.951 25.531 366.746 26.5931C365.54 27.6551 364.935 28.9382 364.935 30.4422C364.935 31.6593 365.249 32.6672 365.881 33.4618C366.513 34.2564 367.277 34.8263 368.168 35.1713C369.063 35.5162 369.963 35.8185 370.866 36.0705C371.769 36.3263 372.533 36.6441 373.161 37.024C373.789 37.4039 374.099 37.9039 374.099 38.5279C374.099 39.2179 373.827 39.7917 373.289 40.2414C372.75 40.691 371.998 40.9157 371.04 40.9157C370.211 40.9157 369.416 40.7297 368.656 40.3576C367.897 39.9855 367.404 39.6909 367.187 39.4699C366.966 39.249 366.796 39.0706 366.676 38.9311L364.276 41.3151L364.575 41.6406C364.749 41.8461 365.032 42.1018 365.431 42.4041C365.831 42.7065 366.288 43.005 366.811 43.2996C367.335 43.5942 367.998 43.8462 368.808 44.0555C369.614 44.2687 370.451 44.3733 371.316 44.3733C373.51 44.3733 375.231 43.8306 376.483 42.7414C377.731 41.6522 378.355 40.249 378.355 38.5279C378.355 37.3108 378.041 36.303 377.409 35.5083C376.777 34.7137 376.01 34.144 375.107 33.7991V33.8068Z" fill="#F6EFE2"/>
<path d="M401.573 33.0934L408.469 25.3953H403.829L396.53 33.4965V25.3953H392.538V43.9818H396.53V38.6675L398.914 36.0238L404.36 43.9818H409L401.573 33.0934Z" fill="#F6EFE2"/>
</svg>
